<svg width="104" height="100" viewBox="0 0 104 100" fill="none" xmlns="http://www.w3.org/2000/svg">
<rect y="16" width="104" height="75" fill="#DC712D"/>
<path d="M0 0H88.8727L104 16H0L0 0Z" fill="#F38C4B"/>
<path d="M50.9973 80.5966C47.9292 80.5966 45.2019 80.071 42.8155 79.0199C40.4434 77.9687 38.5684 76.5057 37.1905 74.6307C35.8127 72.7557 35.0811 70.5895 34.9959 68.1321H43.0073C43.0783 69.3111 43.4689 70.3409 44.1792 71.2216C44.8894 72.0881 45.834 72.7628 47.013 73.2457C48.1919 73.7287 49.513 73.9702 50.976 73.9702C52.5385 73.9702 53.9235 73.7003 55.1309 73.1605C56.3382 72.6065 57.2828 71.8395 57.9647 70.8594C58.6465 69.8793 58.9803 68.75 58.9661 67.4716C58.9803 66.1506 58.6394 64.9858 57.9434 63.9773C57.2473 62.9687 56.2388 62.1804 54.9178 61.6122C53.611 61.044 52.0343 60.7599 50.1877 60.7599H46.3311V54.6662H50.1877C51.7076 54.6662 53.0357 54.4034 54.1721 53.8778C55.3226 53.3523 56.2246 52.6136 56.878 51.6619C57.5314 50.696 57.851 49.581 57.8368 48.3168C57.851 47.081 57.574 46.0085 57.0059 45.0994C56.4519 44.1761 55.6635 43.4588 54.6408 42.9474C53.6323 42.4361 52.4462 42.1804 51.0826 42.1804C49.7473 42.1804 48.5115 42.4219 47.3752 42.9048C46.2388 43.3878 45.3226 44.0767 44.6266 44.9716C43.9306 45.8523 43.5613 46.9034 43.5186 48.125H35.9121C35.9689 45.6818 36.6721 43.5369 38.0215 41.6903C39.3851 39.8295 41.2033 38.3807 43.476 37.3438C45.7488 36.2926 48.2985 35.767 51.1252 35.767C54.0371 35.767 56.5655 36.3139 58.7104 37.4077C60.8695 38.4872 62.5385 39.9432 63.7175 41.7756C64.8965 43.608 65.486 45.6321 65.486 47.848C65.5002 50.3054 64.7757 52.3651 63.3127 54.027C61.8638 55.6889 59.9604 56.7756 57.6025 57.2869V57.6278C60.6706 58.054 63.0215 59.1903 64.655 61.0369C66.3027 62.8693 67.1195 65.1491 67.1053 67.8764C67.1053 70.3196 66.4093 72.5071 65.0172 74.4389C63.6394 76.3565 61.736 77.8622 59.307 78.956C56.8922 80.0497 54.1223 80.5966 50.9973 80.5966Z" fill="white"/>
</svg>