<svg width="104" height="128" viewBox="0 0 104 128" fill="none" xmlns="http://www.w3.org/2000/svg">
<rect y="16" width="104" height="104" fill="#DC712D"/>
<path d="M14.1818 0H104V16H0L14.1818 0Z" fill="#F38C4B"/>
<path d="M32.3267 101V93.3864L52.5256 73.5852C54.4574 71.6345 56.0672 69.9015 57.3551 68.3864C58.643 66.8712 59.6089 65.4034 60.2528 63.983C60.8968 62.5625 61.2188 61.0473 61.2188 59.4375C61.2188 57.6004 60.8021 56.0284 59.9688 54.7216C59.1354 53.3958 57.9896 52.3731 56.5312 51.6534C55.0729 50.9337 53.4157 50.5739 51.5597 50.5739C49.6468 50.5739 47.9706 50.9716 46.5312 51.767C45.0919 52.5436 43.9744 53.6515 43.179 55.0909C42.4025 56.5303 42.0142 58.2443 42.0142 60.233H31.9858C31.9858 56.5398 32.8286 53.3295 34.5142 50.6023C36.1998 47.875 38.5199 45.7633 41.4744 44.267C44.4479 42.7708 47.857 42.0227 51.7017 42.0227C55.6032 42.0227 59.0313 42.7519 61.9858 44.2102C64.9403 45.6686 67.232 47.6667 68.8608 50.2045C70.5085 52.7424 71.3324 55.6401 71.3324 58.8977C71.3324 61.0758 70.9157 63.2159 70.0824 65.3182C69.2491 67.4205 67.7813 69.75 65.679 72.3068C63.5956 74.8636 60.6695 77.9602 56.9006 81.5966L46.8722 91.7955V92.1932H72.2131V101H32.3267Z" fill="white"/>
</svg>
