<svg width="14" height="12" viewBox="0 0 14 12" fill="none" xmlns="http://www.w3.org/2000/svg">
<path d="M13 7.4999C13.1912 7.50011 13.375 7.57331 13.514 7.70453C13.653 7.83576 13.7367 8.01511 13.7479 8.20594C13.7591 8.39677 13.697 8.58468 13.5743 8.73127C13.4516 8.87786 13.2776 8.97207 13.0877 8.99465L13 8.9999H2.81049L4.53024 10.7196C4.66475 10.8546 4.74285 11.0357 4.74866 11.2262C4.75448 11.4166 4.68758 11.6022 4.56156 11.7451C4.43553 11.888 4.25983 11.9776 4.07014 11.9957C3.88045 12.0138 3.69099 11.959 3.54024 11.8424L3.46974 11.7801L0.597243 8.90765C0.0984931 8.40965 0.417993 7.5704 1.09449 7.5044L1.18074 7.4999H13ZM9.46974 0.219646C9.59889 0.0905136 9.77071 0.01294 9.95298 0.00147916C10.1353 -0.00998173 10.3154 0.0454575 10.4597 0.157396L10.5302 0.219646L13.4027 3.09215C13.9015 3.59015 13.582 4.4294 12.9055 4.4954L12.8192 4.4999H0.999993C0.808833 4.49968 0.624969 4.42649 0.485967 4.29526C0.346965 4.16403 0.263317 3.98468 0.252114 3.79385C0.240911 3.60302 0.302999 3.41511 0.425692 3.26852C0.548384 3.12193 0.722421 3.02772 0.912243 3.00515L0.999993 2.9999H11.1895L9.46974 1.28015C9.32914 1.1395 9.25015 0.948769 9.25015 0.749896C9.25015 0.551023 9.32914 0.360292 9.46974 0.219646Z" fill="#262626"/>
</svg>
