<svg width="13" height="12" viewBox="0 0 13 12" fill="none" xmlns="http://www.w3.org/2000/svg">
<path fill-rule="evenodd" clip-rule="evenodd" d="M3.7143 11.9121L6.64922 10.3834L9.58413 11.9121C10.1489 12.2062 10.8061 11.726 10.6974 11.0986L10.1388 7.87172L12.4986 5.59283C12.9588 5.14846 12.7071 4.36926 12.0739 4.27811L8.80588 3.80766L7.33774 0.860558C7.05463 0.292248 6.2438 0.292249 5.96069 0.860559L4.49255 3.80766L1.22456 4.27811C0.591384 4.36926 0.339649 5.14846 0.799808 5.59283L3.15966 7.87172L2.60101 11.0986C2.49239 11.726 3.14956 12.2062 3.7143 11.9121ZM9.37356 10.4611L6.6502 9.04262L3.92685 10.4611L4.44696 7.45677L2.24372 5.32912L5.28852 4.8908L6.6502 2.1574L8.01188 4.8908L11.0567 5.32912L8.85344 7.45677L9.37356 10.4611Z" fill="url(#paint0_linear_137_426)"/>
<defs>
<linearGradient id="paint0_linear_137_426" x1="6.64922" y1="0.434326" x2="6.64922" y2="12.0008" gradientUnits="userSpaceOnUse">
<stop stop-color="#252525"/>
<stop offset="1" stop-color="#2C2C2C"/>
</linearGradient>
</defs>
</svg>
