<svg width="390" height="255" viewBox="0 0 390 255" fill="none" xmlns="http://www.w3.org/2000/svg">
<g clip-path="url(#clip0_93_3602)">
<path d="M29.6401 19.4849C1.04006 -12.1458 -24.0787 27.4904 -34.3199 65.116V254.9H-28.5999H469.04V38.6706C430.416 78.5667 407.871 75.6177 396.24 38.6706C386.36 7.2856 382.72 71.3384 344.24 71.3384C327.899 71.3384 310.762 60.7015 305.24 27.8546C297.44 -18.5407 276.592 1.58163 273.52 27.8547C270.448 54.1277 260.307 60.4788 218.61 60.4788C176.914 60.4788 175.651 60.9735 163.8 92.5984C151.95 124.223 119.417 125.886 119.417 60.4788C119.417 0.299074 101.92 -5.40482 96.2001 10.1513C90.1001 26.7408 81.2783 48.5229 67.6001 48.5229C58.7487 48.5229 55.3423 47.9108 29.6401 19.4849Z" fill="url(#paint0_linear_93_3602)"/>
<path opacity="0.6" d="M72.2823 209.54V200.014H73.6554L76.9562 208.041H76.9958L80.2966 200.014H81.6697V209.54H80.5606V202.179H80.521L77.4777 209.54H76.4743L73.431 202.179H73.3913V209.54H72.2823ZM85.2569 209.672C83.8904 209.672 82.9727 208.847 82.9727 207.599V207.586C82.9727 206.417 83.8838 205.685 85.4615 205.592L87.4288 205.48V204.906C87.4288 204.067 86.8809 203.559 85.9236 203.559C85.039 203.559 84.4845 203.982 84.3525 204.595L84.3393 204.655H83.2302L83.2368 204.582C83.3358 203.453 84.3195 202.542 85.9368 202.542C87.5608 202.542 88.5775 203.42 88.5775 204.794V209.54H87.4288V208.424H87.4024C86.9997 209.177 86.1745 209.672 85.2569 209.672ZM84.1478 207.599C84.1478 208.259 84.6892 208.675 85.5143 208.675C86.597 208.675 87.4288 207.929 87.4288 206.932V206.371L85.5936 206.484C84.6759 206.536 84.1478 206.946 84.1478 207.586V207.599ZM90.8047 211.851C90.5803 211.851 90.336 211.824 90.1908 211.798V210.86C90.2898 210.88 90.4218 210.9 90.5605 210.9C91.2866 210.9 91.6893 210.715 91.9666 209.936L92.1052 209.547L89.557 202.674H90.7849L92.6796 208.391H92.706L94.6072 202.674H95.8153L93.1351 209.969C92.6466 211.283 92.0458 211.851 90.8047 211.851Z" fill="black"/>
<path opacity="0.6" d="M-2.29757 209.54L1.24747 200.014H2.42255L5.96099 209.54H4.71329L3.74946 206.814H-0.0860448L-1.04987 209.54H-2.29757ZM1.82181 201.44L0.277041 205.804H3.39298L1.84821 201.44H1.82181ZM6.98676 211.851V202.674H8.13544V203.836H8.16184C8.59094 203.037 9.35673 202.542 10.3404 202.542C12.0964 202.542 13.2582 203.942 13.2582 206.107V206.114C13.2582 208.279 12.0832 209.672 10.3602 209.672C9.38973 209.672 8.59094 209.184 8.16184 208.391H8.13544V211.851H6.98676ZM10.1159 208.655C11.3306 208.655 12.0832 207.678 12.0832 206.114V206.107C12.0832 204.529 11.3306 203.559 10.1159 203.559C8.95403 203.559 8.12883 204.569 8.12883 206.107V206.114C8.12883 207.645 8.96063 208.655 10.1159 208.655ZM14.5283 209.54V202.674H15.677V203.836H15.7034C15.9344 203.044 16.5286 202.542 17.3009 202.542C17.499 202.542 17.6706 202.575 17.763 202.589V203.704C17.6706 203.671 17.4264 203.638 17.1491 203.638C16.2579 203.638 15.677 204.259 15.677 205.302V209.54H14.5283Z" fill="black"/>
<path opacity="0.6" d="M152.485 209.698C150.835 209.698 149.904 208.675 149.805 207.309L149.798 207.216H150.987L150.993 207.282C151.066 208.002 151.535 208.603 152.479 208.603C153.535 208.603 154.103 207.975 154.103 206.814V200.014H155.291V206.827C155.291 208.629 154.248 209.698 152.485 209.698ZM159.413 209.672C157.908 209.672 157.036 208.695 157.036 207.13V202.674H158.185V206.926C158.185 208.041 158.706 208.655 159.763 208.655C160.845 208.655 161.552 207.883 161.552 206.715V202.674H162.7V209.54H161.552V208.563H161.525C161.156 209.203 160.456 209.672 159.413 209.672ZM164.307 209.54V202.674H165.456V203.651H165.482C165.852 203.011 166.552 202.542 167.595 202.542C169.1 202.542 169.971 203.519 169.971 205.084V209.54H168.823V205.289C168.823 204.173 168.301 203.559 167.245 203.559C166.162 203.559 165.456 204.331 165.456 205.5V209.54H164.307Z" fill="black"/>
<path opacity="0.6" d="M227.47 209.698C225.82 209.698 224.889 208.675 224.79 207.309L224.783 207.216H225.972L225.978 207.282C226.051 208.002 226.52 208.603 227.464 208.603C228.52 208.603 229.088 207.975 229.088 206.814V200.014H230.276V206.827C230.276 208.629 229.233 209.698 227.47 209.698ZM234.398 209.672C232.893 209.672 232.021 208.695 232.021 207.13V202.674H233.17V206.926C233.17 208.041 233.692 208.655 234.748 208.655C235.83 208.655 236.537 207.883 236.537 206.715V202.674H237.685V209.54H236.537V208.563H236.51C236.141 209.203 235.441 209.672 234.398 209.672ZM239.352 209.54V200.014H240.5V209.54H239.352Z" fill="black"/>
<path opacity="0.6" d="M295.329 209.54L298.874 200.014H300.049L303.588 209.54H302.34L301.376 206.814H297.541L296.577 209.54H295.329ZM299.449 201.44L297.904 205.804H301.02L299.475 201.44H299.449ZM306.759 209.672C305.254 209.672 304.383 208.695 304.383 207.13V202.674H305.531V206.926C305.531 208.041 306.053 208.655 307.109 208.655C308.192 208.655 308.898 207.883 308.898 206.715V202.674H310.047V209.54H308.898V208.563H308.872C308.502 209.203 307.802 209.672 306.759 209.672ZM314.558 211.983C312.861 211.983 311.792 211.184 311.568 210.167L311.554 210.108H312.71L312.736 210.167C312.954 210.662 313.607 210.966 314.545 210.966C315.753 210.966 316.44 210.299 316.44 209.236V208.358H316.413C316.004 209.118 315.212 209.606 314.228 209.606C312.498 209.606 311.317 208.213 311.317 206.068V206.061C311.317 203.929 312.512 202.542 314.254 202.542C315.225 202.542 315.991 203.071 316.413 203.836H316.44V202.674H317.588V209.349C317.588 210.94 316.42 211.983 314.558 211.983ZM314.479 208.589C315.647 208.589 316.44 207.593 316.44 206.068V206.061C316.44 204.549 315.641 203.559 314.479 203.559C313.258 203.559 312.492 204.536 312.492 206.061V206.068C312.492 207.626 313.258 208.589 314.479 208.589Z" fill="black"/>
<path opacity="0.6" d="M375.922 209.698C373.862 209.698 372.469 208.688 372.35 207.058L372.344 206.965H373.532L373.545 207.058C373.684 208.015 374.608 208.603 375.988 208.603C377.361 208.603 378.226 207.982 378.226 206.998V206.992C378.226 206.153 377.678 205.685 376.371 205.394L375.314 205.163C373.453 204.754 372.581 203.916 372.581 202.523V202.516C372.588 200.951 373.974 199.856 375.935 199.856C377.797 199.856 379.156 200.932 379.262 202.49L379.269 202.589H378.08L378.067 202.496C377.922 201.526 377.11 200.951 375.902 200.951C374.628 200.958 373.796 201.565 373.796 202.483V202.49C373.796 203.269 374.37 203.757 375.611 204.028L376.668 204.259C378.622 204.688 379.44 205.48 379.44 206.932V206.939C379.44 208.629 378.1 209.698 375.922 209.698ZM383.589 209.672C381.615 209.672 380.427 208.292 380.427 206.134V206.127C380.427 204.001 381.641 202.542 383.516 202.542C385.391 202.542 386.533 203.935 386.533 205.995V206.417H381.588C381.615 207.83 382.394 208.655 383.615 208.655C384.486 208.655 385.1 208.22 385.298 207.632L385.318 207.573H386.447L386.434 207.639C386.209 208.774 385.087 209.672 383.589 209.672ZM383.509 203.559C382.513 203.559 381.734 204.239 381.608 205.52H385.364C385.252 204.186 384.513 203.559 383.509 203.559ZM387.803 211.851V202.674H388.952V203.836H388.978C389.407 203.037 390.173 202.542 391.157 202.542C392.913 202.542 394.074 203.942 394.074 206.107V206.114C394.074 208.279 392.899 209.672 391.176 209.672C390.206 209.672 389.407 209.184 388.978 208.391H388.952V211.851H387.803ZM390.932 208.655C392.147 208.655 392.899 207.678 392.899 206.114V206.107C392.899 204.529 392.147 203.559 390.932 203.559C389.77 203.559 388.945 204.569 388.945 206.107V206.114C388.945 207.645 389.777 208.655 390.932 208.655Z" fill="black"/>
<rect x="164.32" y="4.26001" width="79.04" height="35.36" rx="8.32" fill="url(#paint1_linear_93_3602)"/>
<path d="M181.273 18.3487L181.273 17.3615L185.173 17.3615L185.173 18.3487L181.273 18.3487ZM191.858 22.3035L191.858 21.2737C190.413 21.1457 189.268 20.2804 189.17 18.9215L189.164 18.8362L190.225 18.8362L190.237 18.9093C190.359 19.6101 190.81 20.2012 191.858 20.317L191.858 17.3859L191.718 17.3493C190.2 16.9837 189.384 16.3073 189.384 15.1007L189.384 15.0946C189.384 13.7905 190.42 12.907 191.858 12.7729L191.858 11.743L192.589 11.743L192.589 12.7668C193.99 12.8948 195.045 13.7905 195.13 15.0702L195.136 15.1616L194.076 15.1616L194.07 15.1068C193.984 14.339 193.412 13.8332 192.589 13.7296L192.589 16.5266L192.778 16.5693C194.344 16.9471 195.221 17.593 195.221 18.8788L195.221 18.8849C195.221 20.3474 194.021 21.1701 192.589 21.2798L192.589 22.3035L191.858 22.3035ZM190.444 15.0459C190.444 15.643 190.816 16.094 191.858 16.3499L191.858 13.7296C190.931 13.8576 190.444 14.4487 190.444 15.0398L190.444 15.0459ZM192.625 17.5687L192.589 17.5626L192.589 20.3291C193.722 20.2377 194.161 19.6588 194.161 18.952L194.161 18.9459C194.161 18.2816 193.826 17.8612 192.625 17.5687ZM198.957 21.4199L198.957 13.7905L198.933 13.7905L196.605 15.4115L196.605 14.3085L198.945 12.6266L200.017 12.6266L200.017 21.4199L198.957 21.4199ZM201.492 23.1445L202.028 20.1646L203.137 20.1646L202.248 23.1445L201.492 23.1445ZM207.537 21.5662C205.721 21.5662 204.545 20.5546 204.429 19.1652L204.423 19.0921L205.477 19.0921L205.483 19.153C205.575 20.0184 206.367 20.6155 207.537 20.6155C208.689 20.6155 209.475 19.9696 209.475 19.0373L209.475 19.0251C209.475 17.9465 208.701 17.3432 207.47 17.3432L206.367 17.3432L206.367 16.417L207.421 16.417C208.469 16.417 209.2 15.771 209.2 14.8935L209.2 14.8813C209.2 13.9612 208.597 13.431 207.525 13.431C206.489 13.431 205.751 13.9795 205.66 14.8691L205.654 14.9301L204.6 14.9301L204.606 14.8691C204.746 13.4371 205.879 12.4804 207.525 12.4804C209.2 12.4804 210.303 13.4127 210.303 14.7473L210.303 14.7595C210.303 15.8441 209.536 16.5876 208.439 16.8191L208.439 16.8435C209.718 16.9532 210.59 17.7515 210.59 19.0007L210.59 19.0129C210.59 20.4815 209.298 21.5662 207.537 21.5662ZM216.141 21.4199L216.141 19.5918L211.723 19.5918L211.723 18.5985L215.581 12.6266L217.202 12.6266L217.202 18.629L218.445 18.629L218.445 19.5918L217.202 19.5918L217.202 21.4199L216.141 21.4199ZM212.808 18.629L216.141 18.629L216.141 13.5651L216.105 13.5651L212.808 18.6046L212.808 18.629ZM222.528 21.5662C220.846 21.5662 219.645 20.518 219.517 19.086L219.511 19.019L220.59 19.019L220.596 19.0677C220.705 19.9391 221.485 20.6034 222.54 20.6034C223.734 20.6034 224.563 19.7746 224.563 18.5924L224.563 18.5802C224.557 17.4224 223.722 16.5937 222.558 16.5937C221.961 16.5937 221.449 16.7704 221.059 17.1238C220.9 17.2701 220.76 17.4407 220.645 17.6418L219.676 17.6418L220.127 12.6266L225.16 12.6266L225.16 13.6016L221.028 13.6016L220.73 16.5571L220.754 16.5571C221.169 15.966 221.9 15.6491 222.753 15.6491C224.441 15.6491 225.66 16.874 225.66 18.562L225.66 18.5741C225.654 20.3352 224.356 21.5662 222.528 21.5662Z" fill="white"/>
<path d="M181.964 32.0253C181.015 32.0253 180.46 31.4458 180.417 30.6283L180.414 30.5856L181.199 30.5856L181.203 30.6176C181.235 31.0086 181.48 31.3143 181.957 31.3143C182.483 31.3143 182.767 31.0015 182.767 30.415L182.767 26.8105L183.563 26.8105L183.563 30.4221C183.563 31.4316 182.97 32.0253 181.964 32.0253ZM186.657 32.0253C185.371 32.0253 184.578 31.261 184.578 30.1377L184.578 26.8105L185.374 26.8105L185.374 30.0737C185.374 30.8202 185.84 31.3214 186.657 31.3214C187.475 31.3214 187.937 30.8202 187.937 30.0737L187.937 26.8105L188.73 26.8105L188.73 30.1377C188.73 31.261 187.948 32.0253 186.657 32.0253ZM189.733 31.9399L189.733 26.8105L190.469 26.8105L193.107 30.6034L193.128 30.6034L193.128 26.8105L193.917 26.8105L193.917 31.9399L193.185 31.9399L190.544 28.14L190.523 28.14L190.523 31.9399L189.733 31.9399ZM194.925 31.9399L194.925 26.8105L198.181 26.8105L198.181 27.4966L195.721 27.4966L195.721 28.9931L198.049 28.9931L198.049 29.6614L195.721 29.6614L195.721 31.2539L198.181 31.2539L198.181 31.9399L194.925 31.9399ZM201.816 31.9399L201.816 27.5997L201.799 27.5997L200.459 28.5239L200.459 27.7703L201.809 26.8105L202.595 26.8105L202.595 31.9399L201.816 31.9399ZM205.739 32.0253C204.711 32.0253 203.997 31.4032 203.926 30.5572L203.922 30.5145L204.683 30.5145L204.686 30.5429C204.754 31.0051 205.173 31.3605 205.746 31.3605C206.393 31.3605 206.844 30.9126 206.844 30.2763L206.844 30.2692C206.841 29.6401 206.389 29.1957 205.753 29.1957C205.436 29.1957 205.163 29.2881 204.957 29.473C204.861 29.5547 204.779 29.6543 204.711 29.768L204.015 29.768L204.267 26.8105L207.324 26.8105L207.324 27.4824L204.91 27.4824L204.754 29.1069L204.772 29.1069C205.003 28.7621 205.429 28.5665 205.934 28.5665C206.915 28.5665 207.623 29.2739 207.623 30.255L207.623 30.2621C207.623 31.3037 206.844 32.0253 205.739 32.0253ZM208.065 32.9708L208.356 31.1508L209.124 31.1508L208.605 32.9708L208.065 32.9708ZM211.16 31.9399L211.16 31.3925L212.966 29.5761C213.648 28.8936 213.801 28.6234 213.801 28.2253L213.801 28.2182C213.798 27.7312 213.428 27.3828 212.909 27.3828C212.308 27.3828 211.878 27.7881 211.871 28.3071L211.871 28.3284L211.117 28.3284L211.117 28.3071C211.117 27.3899 211.896 26.7252 212.898 26.7252C213.883 26.7252 214.587 27.3437 214.587 28.172L214.587 28.1791C214.587 28.7656 214.313 29.1815 213.392 30.0915L212.226 31.2361L212.226 31.2681L214.668 31.2681L214.668 31.9399L211.16 31.9399ZM217.3 32.0253C216.074 32.0253 215.342 31.0051 215.342 29.377L215.342 29.3699C215.342 27.7419 216.074 26.7252 217.3 26.7252C218.523 26.7252 219.259 27.7419 219.259 29.3699L219.259 29.377C219.259 31.0051 218.523 32.0253 217.3 32.0253ZM217.3 31.3605C218.029 31.3605 218.456 30.6069 218.456 29.377L218.456 29.3699C218.456 28.14 218.029 27.3935 217.3 27.3935C216.568 27.3935 216.145 28.14 216.145 29.3699L216.145 29.377C216.145 30.6069 216.568 31.3605 217.3 31.3605ZM219.971 31.9399L219.971 31.3925L221.777 29.5761C222.46 28.8936 222.612 28.6234 222.612 28.2253L222.612 28.2182C222.609 27.7312 222.239 27.3828 221.72 27.3828C221.119 27.3828 220.689 27.7881 220.682 28.3071L220.682 28.3284L219.929 28.3284L219.929 28.3071C219.929 27.3899 220.707 26.7252 221.71 26.7252C222.694 26.7252 223.398 27.3437 223.398 28.172L223.398 28.1791C223.398 28.7656 223.124 29.1815 222.204 30.0915L221.038 31.2361L221.038 31.2681L223.48 31.2681L223.48 31.9399L219.971 31.9399ZM226.112 32.0253C224.885 32.0253 224.153 31.0051 224.153 29.377L224.153 29.3699C224.153 27.7419 224.885 26.7252 226.112 26.7252C227.334 26.7252 228.07 27.7419 228.07 29.3699L228.07 29.377C228.07 31.0051 227.334 32.0253 226.112 32.0253ZM226.112 31.3605C226.84 31.3605 227.267 30.6069 227.267 29.377L227.267 29.3699C227.267 28.14 226.84 27.3935 226.112 27.3935C225.379 27.3935 224.956 28.14 224.956 29.3699L224.956 29.377C224.956 30.6069 225.379 31.3605 226.112 31.3605Z" fill="white"/>
<path d="M202.477 45.7314C202.892 46.3065 203.748 46.3065 204.163 45.7314L208.885 39.1885C209.382 38.5007 208.89 37.5399 208.042 37.5399H198.598C197.75 37.5399 197.258 38.5007 197.755 39.1885L202.477 45.7314Z" fill="black"/>
<path d="M44.2 211.86L44.2 24.1499" stroke="#212121" stroke-width="1.04" stroke-dasharray="4.16 4.16"/>
<path d="M122.2 211.86L122.2 80.1516" stroke="#212121" stroke-width="1.04" stroke-dasharray="4.16 4.16"/>
<path d="M197.08 211.862L197.08 50.0789" stroke="#212121" stroke-width="1.04" stroke-dasharray="4.16 4.16"/>
<path d="M267.8 211.862L267.8 36.5974" stroke="#212121" stroke-width="1.04" stroke-dasharray="4.16 4.16"/>
<path d="M344.76 211.86L344.76 61.4844" stroke="#212121" stroke-width="1.04" stroke-dasharray="4.16 4.16"/>
<path d="M-34.3199 65.1159C-24.0787 27.4904 1.04006 -12.1458 29.6401 19.4849C55.3423 47.9108 58.7487 48.5228 67.6001 48.5228C81.2783 48.5228 90.1001 26.7407 96.2001 10.1512C101.92 -5.40485 119.417 0.299043 119.417 60.4787C119.417 125.886 151.95 124.223 163.8 92.5983C175.651 60.9735 176.914 60.4787 218.61 60.4787C260.307 60.4787 270.448 54.1277 273.52 27.8546C276.592 1.5816 297.44 -18.5407 305.24 27.8546C310.762 60.7015 327.899 71.3383 344.24 71.3383C382.72 71.3383 386.36 7.28556 396.24 38.6706C407.871 75.6177 430.416 78.5667 469.04 38.6706" stroke="black" stroke-width="1.04"/>
<g opacity="0.3" filter="url(#filter0_f_93_3602)">
<ellipse cx="203.32" cy="66.1403" rx="8.84" ry="8.84029" fill="black"/>
</g>
<ellipse cx="203.32" cy="60.9404" rx="8.84" ry="8.84029" fill="#329F00"/>
<ellipse cx="203.32" cy="60.936" rx="3.64" ry="3.64012" fill="white"/>
</g>
<defs>
<filter id="filter0_f_93_3602" x="180.96" y="43.78" width="44.7201" height="44.7207" filterUnits="userSpaceOnUse" color-interpolation-filters="sRGB">
<feFlood flood-opacity="0" result="BackgroundImageFix"/>
<feBlend mode="normal" in="SourceGraphic" in2="BackgroundImageFix" result="shape"/>
<feGaussianBlur stdDeviation="6.76" result="effect1_foregroundBlur_93_3602"/>
</filter>
<linearGradient id="paint0_linear_93_3602" x1="217.36" y1="0.100098" x2="217.36" y2="254.9" gradientUnits="userSpaceOnUse">
<stop stop-color="#B2D0CE" stop-opacity="0.1"/>
<stop offset="1" stop-color="#B2D0CE" stop-opacity="0"/>
</linearGradient>
<linearGradient id="paint1_linear_93_3602" x1="203.84" y1="4.26001" x2="203.84" y2="39.62" gradientUnits="userSpaceOnUse">
<stop stop-color="#3FBF03"/>
<stop offset="1" stop-color="#82D75A"/>
</linearGradient>
<clipPath id="clip0_93_3602">
<rect width="390" height="254.8" fill="white" transform="translate(0 0.100098)"/>
</clipPath>
</defs>
</svg>
