<svg width="11" height="11" viewBox="0 0 11 11" fill="none" xmlns="http://www.w3.org/2000/svg">
<path d="M10.375 4.95833H8.74998V1.16667C8.74998 1.02301 8.69291 0.885233 8.59133 0.78365C8.48975 0.682068 8.35197 0.625 8.20831 0.625H0.62498C0.481321 0.625 0.343546 0.682068 0.241963 0.78365C0.140381 0.885233 0.083313 1.02301 0.083313 1.16667V8.75C0.083313 9.64592 0.812396 10.375 1.70831 10.375H9.29165C10.1876 10.375 10.9166 9.64592 10.9166 8.75V5.5C10.9166 5.35634 10.8596 5.21857 10.758 5.11698C10.6564 5.0154 10.5186 4.95833 10.375 4.95833ZM1.70831 9.29167C1.56465 9.29167 1.42688 9.2346 1.3253 9.13302C1.22371 9.03144 1.16665 8.89366 1.16665 8.75V1.70833H7.66665V8.75C7.66665 8.94013 7.69969 9.12267 7.75927 9.29167H1.70831ZM9.83331 8.75C9.83331 8.89366 9.77624 9.03144 9.67466 9.13302C9.57308 9.2346 9.4353 9.29167 9.29165 9.29167C9.14799 9.29167 9.01021 9.2346 8.90863 9.13302C8.80705 9.03144 8.74998 8.89366 8.74998 8.75V6.04167H9.83331V8.75Z" fill="black"/>
</svg>
