<svg width="11" height="10" viewBox="0 0 11 10" fill="none" xmlns="http://www.w3.org/2000/svg">
<path d="M6.88751 3.33339H9.45161V2.47869C9.45161 1.53852 8.68238 0.769287 7.74221 0.769287H2.614C1.67383 0.769287 0.904602 1.53852 0.904602 2.47869V6.75219C0.904602 7.69236 1.67383 8.46159 2.614 8.46159H7.74221C8.68238 8.46159 9.45161 7.69236 9.45161 6.75219V5.89749H6.88751C6.41742 5.89749 6.03281 5.51288 6.03281 5.04279V4.18809C6.03281 3.71801 6.41742 3.33339 6.88751 3.33339Z" stroke="#212121" stroke-width="1.28205" stroke-miterlimit="10" stroke-linecap="round" stroke-linejoin="round"/>
<path d="M7.317 5.04122C7.55302 5.04122 7.74435 4.84989 7.74435 4.61387C7.74435 4.37785 7.55302 4.18652 7.317 4.18652C7.08098 4.18652 6.88965 4.37785 6.88965 4.61387C6.88965 4.84989 7.08098 5.04122 7.317 5.04122Z" fill="#212121"/>
<path d="M9.4538 3.33325V5.89735" stroke="#212121" stroke-width="1.28205" stroke-miterlimit="10" stroke-linecap="round" stroke-linejoin="round"/>
</svg>
